<svg width="30" height="29" viewBox="0 0 30 29" fill="none" xmlns="http://www.w3.org/2000/svg">
<g clip-path="url(#clip0_547_328)">
<path d="M2.5 10.6024C2.49934 9.67915 2.69294 8.7649 3.06971 7.91195C3.44648 7.05899 3.99902 6.28409 4.69569 5.63162C5.39236 4.97914 6.21947 4.46191 7.12967 4.10954C8.03986 3.75718 9.01526 3.57659 10 3.57813H20C24.1413 3.57813 27.5 6.73634 27.5 10.6024V24.6719H10C5.85875 24.6719 2.5 21.5137 2.5 17.6477V10.6024ZM25 22.3281V10.6024C24.9967 9.36075 24.4686 8.17099 23.5314 7.2937C22.5943 6.41641 21.3244 5.92312 20 5.92188H10C9.34356 5.92034 8.69325 6.0403 8.08637 6.27488C7.47949 6.50947 6.92798 6.85406 6.46345 7.28889C5.99893 7.72373 5.63054 8.24026 5.37941 8.80886C5.12828 9.37746 4.99934 9.98694 5 10.6024V17.6477C5.00331 18.8893 5.53139 20.079 6.46857 20.9563C7.40575 21.8336 8.67562 22.3269 10 22.3281H25ZM17.5 12.9531H20V15.2969H17.5V12.9531ZM10 12.9531H12.5V15.2969H10V12.9531Z" fill="#707070"/>
</g>
<defs>
<clipPath id="clip0_547_328">
<rect width="30" height="28.125" fill="white" transform="translate(0 0.0625)"/>
</clipPath>
</defs>
</svg>
