<svg width="30" height="29" viewBox="0 0 30 29" fill="none" xmlns="http://www.w3.org/2000/svg">
<g clip-path="url(#clip0_547_323)">
<path d="M21.25 3.57812H26.25C26.5815 3.57812 26.8995 3.70159 27.1339 3.92136C27.3683 4.14113 27.5 4.4392 27.5 4.75V23.5C27.5 23.8108 27.3683 24.1089 27.1339 24.3286C26.8995 24.5484 26.5815 24.6719 26.25 24.6719H3.75C3.41848 24.6719 3.10054 24.5484 2.86612 24.3286C2.6317 24.1089 2.5 23.8108 2.5 23.5V4.75C2.5 4.4392 2.6317 4.14113 2.86612 3.92136C3.10054 3.70159 3.41848 3.57812 3.75 3.57812H8.75V1.23438H11.25V3.57812H18.75V1.23438H21.25V3.57812ZM5 10.6094V22.3281H25V10.6094H5ZM7.5 15.2969H13.75V19.9844H7.5V15.2969Z" fill="#707070"/>
</g>
<defs>
<clipPath id="clip0_547_323">
<rect width="30" height="28.125" fill="white" transform="translate(0 0.0625)"/>
</clipPath>
</defs>
</svg>
