<svg width="30" height="29" viewBox="0 0 30 29" fill="none" xmlns="http://www.w3.org/2000/svg">
<g clip-path="url(#clip0_547_348)">
<path d="M5 21.1562H7.5V23.5H22.5V4.75H7.5V7.09375H5V3.57812C5 3.26732 5.1317 2.96925 5.36612 2.74948C5.60054 2.52971 5.91848 2.40625 6.25 2.40625H23.75C24.0815 2.40625 24.3995 2.52971 24.6339 2.74948C24.8683 2.96925 25 3.26732 25 3.57812V24.6719C25 24.9827 24.8683 25.2807 24.6339 25.5005C24.3995 25.7203 24.0815 25.8438 23.75 25.8438H6.25C5.91848 25.8438 5.60054 25.7203 5.36612 25.5005C5.1317 25.2807 5 24.9827 5 24.6719V21.1562ZM7.5 12.9531H16.25V15.2969H7.5V18.8125L1.25 14.125L7.5 9.4375V12.9531Z" fill="#707070"/>
</g>
<defs>
<clipPath id="clip0_547_348">
<rect width="30" height="28.125" fill="white" transform="translate(0 0.0625)"/>
</clipPath>
</defs>
</svg>
