<svg width="30" height="29" viewBox="0 0 30 29" fill="none" xmlns="http://www.w3.org/2000/svg">
<g clip-path="url(#clip0_547_333)">
<path d="M15 25.8438C8.09625 25.8438 2.5 20.5973 2.5 14.125C2.5 8.87734 6.17875 4.43594 11.25 2.94297V5.43203C9.10116 6.25005 7.32225 7.74263 6.21757 9.65443C5.1129 11.5662 4.7511 13.7785 5.19407 15.9127C5.63703 18.047 6.85724 19.9707 8.64596 21.3547C10.4347 22.7387 12.6808 23.497 15 23.5C16.9922 23.4999 18.9391 22.9422 20.5911 21.8983C22.243 20.8544 23.5249 19.3719 24.2725 17.6406H26.9275C25.335 22.3949 20.5975 25.8438 15 25.8438ZM27.4375 15.2969H13.75V2.46484C14.1612 2.42617 14.5787 2.40625 15 2.40625C21.9037 2.40625 27.5 7.65273 27.5 14.125C27.5 14.5199 27.4787 14.9113 27.4375 15.2969ZM16.25 4.82266V12.9531H24.9225C24.6443 10.8878 23.6411 8.96797 22.071 7.49598C20.5008 6.02399 18.453 5.0835 16.25 4.82266Z" fill="#707070"/>
</g>
<defs>
<clipPath id="clip0_547_333">
<rect width="30" height="28.125" fill="white" transform="translate(0 0.0625)"/>
</clipPath>
</defs>
</svg>
