<svg width="32" height="31" viewBox="0 0 32 31" fill="none" xmlns="http://www.w3.org/2000/svg">
<g clip-path="url(#clip0_547_343)">
<path d="M4.45341 21.3128C3.88977 20.399 3.45163 19.4221 3.14941 18.4053C3.80716 18.0916 4.35954 17.6136 4.74545 17.0239C5.13137 16.4342 5.33577 15.756 5.33604 15.0642C5.33632 14.3724 5.13246 13.694 4.74702 13.104C4.36157 12.5141 3.80957 12.0356 3.15208 11.7215C3.7548 9.67838 4.90239 7.81271 6.48675 6.30027C7.10554 6.67742 7.82357 6.88672 8.56138 6.90499C9.2992 6.92327 10.028 6.74981 10.6672 6.40381C11.3064 6.05781 11.831 5.55276 12.1829 4.94457C12.5349 4.33637 12.7005 3.64874 12.6614 2.95777C14.8509 2.42729 17.1484 2.42816 19.3374 2.96027C19.2987 3.65122 19.4646 4.33875 19.8169 4.94678C20.1691 5.5548 20.6939 6.05961 21.3332 6.40534C21.9725 6.75108 22.7013 6.92425 23.4391 6.90571C24.1769 6.88716 24.8948 6.67762 25.5134 6.30027C26.2854 7.03777 26.9707 7.87652 27.5467 8.81277C28.1241 9.74902 28.5561 10.7253 28.8507 11.7203C28.193 12.0339 27.6406 12.512 27.2547 13.1016C26.8688 13.6913 26.6644 14.3696 26.6641 15.0614C26.6638 15.7532 26.8677 16.4316 27.2531 17.0215C27.6386 17.6115 28.1906 18.0899 28.8481 18.404C28.2454 20.4472 27.0978 22.3128 25.5134 23.8253C24.8946 23.4481 24.1766 23.2388 23.4388 23.2205C22.701 23.2023 21.9721 23.3757 21.333 23.7217C20.6938 24.0677 20.1692 24.5728 19.8172 25.181C19.4653 25.7892 19.2997 26.4768 19.3387 27.1678C17.1493 27.6982 14.8518 27.6974 12.6627 27.1653C12.7015 26.4743 12.5355 25.7868 12.1833 25.1788C11.8311 24.5707 11.3063 24.0659 10.667 23.7202C10.0277 23.3745 9.29882 23.2013 8.56105 23.2198C7.82328 23.2384 7.10536 23.4479 6.48675 23.8253C5.69873 23.0715 5.01554 22.2273 4.45341 21.3128ZM12.0001 21.5578C13.4209 22.3261 14.4892 23.559 15.0001 25.0203C15.6654 25.079 16.3334 25.0803 16.9987 25.0215C17.5099 23.5601 18.5787 22.3271 20.0001 21.559C21.4204 20.7886 23.0941 20.5371 24.7001 20.8528C25.0867 20.3428 25.4201 19.799 25.6974 19.2303C24.6033 18.0846 23.9989 16.6005 24.0001 15.0628C24.0001 13.4878 24.6267 12.0165 25.6974 10.8953C25.4181 10.3267 25.0834 9.78356 24.6974 9.27277C23.0925 9.58815 21.4198 9.33711 20.0001 8.56777C18.5792 7.79948 17.511 6.5665 17.0001 5.10527C16.3347 5.04652 15.6667 5.04527 15.0014 5.10402C14.4902 6.56545 13.4214 7.79847 12.0001 8.56652C10.5798 9.33691 8.90605 9.58842 7.30008 9.27277C6.91417 9.78313 6.58026 10.3263 6.30275 10.8953C7.39684 12.041 8.00126 13.525 8.00008 15.0628C8.00008 16.6378 7.37341 18.109 6.30275 19.2303C6.58204 19.7988 6.9168 20.342 7.30275 20.8528C8.9077 20.5374 10.5804 20.7884 12.0001 21.5578ZM16.0001 18.8128C14.9392 18.8128 13.9218 18.4177 13.1717 17.7144C12.4215 17.0112 12.0001 16.0573 12.0001 15.0628C12.0001 14.0682 12.4215 13.1144 13.1717 12.4111C13.9218 11.7079 14.9392 11.3128 16.0001 11.3128C17.0609 11.3128 18.0784 11.7079 18.8285 12.4111C19.5787 13.1144 20.0001 14.0682 20.0001 15.0628C20.0001 16.0573 19.5787 17.0112 18.8285 17.7144C18.0784 18.4177 17.0609 18.8128 16.0001 18.8128ZM16.0001 16.3128C16.3537 16.3128 16.6928 16.1811 16.9429 15.9467C17.1929 15.7122 17.3334 15.3943 17.3334 15.0628C17.3334 14.7312 17.1929 14.4133 16.9429 14.1789C16.6928 13.9445 16.3537 13.8128 16.0001 13.8128C15.6465 13.8128 15.3073 13.9445 15.0573 14.1789C14.8072 14.4133 14.6667 14.7312 14.6667 15.0628C14.6667 15.3943 14.8072 15.7122 15.0573 15.9467C15.3073 16.1811 15.6465 16.3128 16.0001 16.3128Z" fill="#707070"/>
</g>
<defs>
<clipPath id="clip0_547_343">
<rect width="32" height="30" fill="white" transform="translate(0 0.0625)"/>
</clipPath>
</defs>
</svg>
